<svg xmlns="http://www.w3.org/2000/svg" width="228" height="48" viewBox="0 0 228 48">
  <defs>
    <linearGradient id="a" x1="100%" x2="0%" y1="50%" y2="50%">
      <stop offset="0%" stop-color="#1C2E9C"/>
      <stop offset="100%" stop-color="#1D2054"/>
    </linearGradient>
  </defs>
  <g fill="none">
    <path fill="#231F20" d="M110.681026,42.756044 L110.681026,40.3164835 C110.710047,39.901431 110.557461,39.4940708 110.262195,39.1983281 C109.966929,38.9025854 109.557537,38.7470597 109.138462,38.7714286 C108.586188,38.7355458 108.057981,39.0004073 107.76,39.4626374 C107.488327,39.014189 106.990883,38.7489666 106.46359,38.7714286 C106.004479,38.7484264 105.56741,38.9681037 105.314872,39.3487912 L105.314872,38.869011 L104.461538,38.869011 L104.461538,42.756044 L105.323077,42.756044 L105.323077,40.6173626 C105.285973,40.3482345 105.372011,40.0767386 105.557714,39.876964 C105.743416,39.6771894 106.009399,39.5699884 106.283077,39.5846154 C106.849231,39.5846154 107.13641,39.9505495 107.13641,40.6092308 L107.13641,42.7723077 L107.997949,42.7723077 L107.997949,40.6173626 C107.962367,40.3485405 108.048932,40.0779244 108.23429,39.8785201 C108.419648,39.6791159 108.684703,39.5714673 108.957949,39.5846154 C109.540513,39.5846154 109.819487,39.9505495 109.819487,40.6092308 L109.819487,42.7723077 L110.681026,42.756044 Z M123.427692,38.869011 L122.024615,38.869011 L122.024615,37.6898901 L121.163077,37.6898901 L121.163077,38.869011 L120.38359,38.869011 L120.38359,39.6415385 L121.179487,39.6415385 L121.179487,41.4305495 C121.179487,42.3331868 121.532308,42.8698901 122.541538,42.8698901 C122.918588,42.8711454 123.288331,42.7668503 123.608205,42.569011 L123.362051,41.8452747 C123.133212,41.9805523 122.87349,42.0560945 122.607179,42.0648352 C122.196923,42.0648352 122.041026,41.8046154 122.041026,41.4142857 L122.041026,39.6415385 L123.435897,39.6415385 L123.427692,38.869011 Z M130.705641,38.7714286 C130.281812,38.7590752 129.885121,38.9774914 129.671795,39.3406593 L129.671795,38.869011 L128.826667,38.869011 L128.826667,42.756044 L129.68,42.756044 L129.68,40.5767033 C129.68,39.9342857 129.958974,39.5764835 130.500513,39.5764835 C130.683029,39.5740092 130.864252,39.607167 131.033846,39.6740659 L131.29641,38.8608791 C131.101527,38.7917843 130.896207,38.7560366 130.689231,38.7551648 L130.705641,38.7714286 Z M119.702564,39.178022 C119.219538,38.8933973 118.664185,38.7522702 118.102564,38.7714286 C117.109744,38.7714286 116.461538,39.2430769 116.461538,40.0156044 C116.461538,40.6498901 116.937436,41.0402198 117.815385,41.1621978 L118.225641,41.2191209 C118.693333,41.2841758 118.914872,41.4061538 118.914872,41.6257143 C118.914872,41.9265934 118.603077,42.0973626 118.020513,42.0973626 C117.551919,42.1108055 117.092391,41.9675901 116.715897,41.6907692 L116.305641,42.3494505 C116.802713,42.6934248 117.398081,42.8701552 118.004103,42.8536264 C119.13641,42.8536264 119.792821,42.3250549 119.792821,41.5850549 C119.792821,40.8450549 119.275897,40.5441758 118.422564,40.4221978 L118.012308,40.3652747 C117.643077,40.3164835 117.347692,40.2432967 117.347692,39.9830769 C117.347692,39.7228571 117.626667,39.5276923 118.094359,39.5276923 C118.526636,39.532669 118.950398,39.6474632 119.325128,39.8610989 L119.702564,39.178022 Z M142.557949,38.7714286 C142.13412,38.7590752 141.737429,38.9774914 141.524103,39.3406593 L141.524103,38.869011 L140.678974,38.869011 L140.678974,42.756044 L141.532308,42.756044 L141.532308,40.5767033 C141.532308,39.9342857 141.811282,39.5764835 142.352821,39.5764835 C142.535337,39.5740092 142.71656,39.607167 142.886154,39.6740659 L143.148718,38.8608791 C142.953835,38.7917843 142.748515,38.7560366 142.541538,38.7551648 L142.557949,38.7714286 Z M131.563077,40.8043956 C131.542555,41.3567263 131.757828,41.8920584 132.156055,42.2789914 C132.554282,42.6659244 133.098594,42.8686335 133.655385,42.8373626 C134.167745,42.8631975 134.671275,42.6978198 135.066667,42.3738462 L134.65641,41.6907692 C134.361424,41.9137089 134.001716,42.0363437 133.630769,42.0404396 C132.976698,41.9879903 132.472857,41.4466137 132.472857,40.7962637 C132.472857,40.1459138 132.976698,39.6045371 133.630769,39.5520879 C134.001716,39.5561838 134.361424,39.6788186 134.65641,39.9017582 L135.066667,39.2186813 C134.671275,38.8947077 134.167745,38.72933 133.655385,38.7551648 C133.098594,38.7238939 132.554282,38.9266031 132.156055,39.3135361 C131.757828,39.7004691 131.542555,40.2358012 131.563077,40.7881319 L131.563077,40.8043956 Z M139.554872,40.8043956 L139.554872,38.869011 L138.701538,38.869011 L138.701538,39.3406593 C138.40755,38.9657599 137.949529,38.753925 137.470769,38.7714286 C136.337877,38.7714286 135.419487,39.6816189 135.419487,40.8043956 C135.419487,41.9271723 136.337877,42.8373626 137.470769,42.8373626 C137.949529,42.8548662 138.40755,42.6430313 138.701538,42.2681319 L138.701538,42.7397802 L139.554872,42.7397802 L139.554872,40.8043956 Z M137.607545,39.6993042 C138.252037,39.7232786 138.758983,40.253419 138.74856,40.8925226 C138.738137,41.5316263 138.214168,42.0452524 137.569231,42.0485714 C137.240837,42.0526895 136.92563,41.9206888 136.699718,41.6844404 C136.473805,41.448192 136.357719,41.129168 136.379487,40.8043956 C136.417434,40.1663158 136.963053,39.6753298 137.607545,39.6993042 Z M126.082051,38.7714286 C124.949159,38.7871474 124.043627,39.7100805 124.059487,40.8328571 C124.075348,41.9556338 125.006595,42.8530815 126.139487,42.8373626 C126.729739,42.8673891 127.310197,42.6790118 127.768205,42.3087912 L127.357949,41.6826374 C127.033995,41.9401243 126.632657,42.0832013 126.217436,42.0892308 C125.63092,42.1392215 125.110802,41.7174705 125.044103,41.1378022 L127.956923,41.1378022 C127.956923,41.0320879 127.956923,40.9263736 127.956923,40.8125275 C127.956923,39.5927473 127.193846,38.7795604 126.094359,38.7795604 L126.082051,38.7714286 Z M126.082051,39.5276923 C126.33994,39.5222433 126.589444,39.618578 126.775647,39.7954926 C126.961849,39.9724071 127.069488,40.2154008 127.074872,40.470989 L125.02359,40.470989 C125.054494,39.928115 125.517324,39.5091465 126.065641,39.5276923 L126.082051,39.5276923 Z M147.460513,40.8125275 L147.460513,37.3076923 L146.64,37.3076923 L146.64,39.3406593 C146.346012,38.9657599 145.88799,38.753925 145.409231,38.7714286 C144.276339,38.7714286 143.357949,39.6816189 143.357949,40.8043956 C143.357949,41.9271723 144.276339,42.8373626 145.409231,42.8373626 C145.88799,42.8548662 146.346012,42.6430313 146.64,42.2681319 L146.64,42.7397802 L147.460513,42.7397802 L147.460513,40.8125275 Z M145.533699,39.7074361 C146.17819,39.7314105 146.685137,40.2615509 146.674714,40.9006545 C146.664291,41.5397582 146.140321,42.0533843 145.495385,42.0567033 C145.16699,42.0608214 144.851784,41.9288207 144.625872,41.6925723 C144.399959,41.4563238 144.283873,41.1372999 144.305641,40.8125275 C144.343588,40.1744477 144.889207,39.6834617 145.533699,39.7074361 Z M115.493333,40.8125275 L115.493333,38.869011 L114.64,38.869011 L114.64,39.3406593 C114.346012,38.9657599 113.88799,38.753925 113.409231,38.7714286 C112.276339,38.7714286 111.357949,39.6816189 111.357949,40.8043956 C111.357949,41.9271723 112.276339,42.8373626 113.409231,42.8373626 C113.88799,42.8548662 114.346012,42.6430313 114.64,42.2681319 L114.64,42.7397802 L115.493333,42.7397802 L115.493333,40.8125275 Z M112.317949,40.8125275 C112.355895,40.1744477 112.901515,39.6834617 113.546006,39.7074361 C114.190498,39.7314105 114.697445,40.2615509 114.687022,40.9006545 C114.676599,41.5397582 114.152629,42.0533843 113.507692,42.0567033 C113.177883,42.0631203 112.860482,41.9321259 112.63275,41.6956059 C112.405018,41.4590858 112.287842,41.1387338 112.309744,40.8125275 L112.317949,40.8125275 Z"/>
    <rect width="12.923" height="23.017" x="119.497" y="9.192" fill="#FF5F00"/>
    <path fill="#EB001B" d="M120.317949,20.7024176 C120.313117,16.2101672 122.393372,11.9653532 125.958974,9.1917582 C119.903504,4.4752958 111.207605,5.1622893 105.982522,10.7699383 C100.757439,16.3775872 100.757439,25.023182 105.982522,30.630831 C111.207605,36.2384799 119.903504,36.9254735 125.958974,32.209011 C122.394506,29.4362966 120.314378,25.1932412 120.317949,20.7024176 Z"/>
    <path fill="#F79E1B" d="M149.85641,20.7024176 C149.856278,26.3066492 146.627455,31.4188578 141.541233,33.8678689 C136.455011,36.3168801 130.404345,35.6727375 125.958974,32.209011 C129.521887,29.4339426 131.602172,25.1914513 131.602172,20.7003846 C131.602172,16.2093179 129.521887,11.9668266 125.958974,9.1917582 C130.404345,5.7280318 136.455011,5.0838892 141.541233,7.5329003 C146.627455,9.9819114 149.856278,15.0941201 149.85641,20.6983516 L149.85641,20.7024176 Z"/>
    <path fill="url(#a)" d="M25.3648653,34.6837218 L29.0094712,13.3703883 L34.8388084,13.3703883 L31.1916899,34.6837218 L25.3648653,34.6837218 Z M52.333921,13.8951596 C51.1789564,13.4633665 49.3693809,13 47.1093779,13 C41.3494128,13 37.2920702,15.8908146 37.2574386,20.0336766 C37.2249921,23.0961849 40.1540269,24.8045221 42.3651961,25.8241243 C44.6342666,26.8687675 45.3970326,27.5350745 45.3861079,28.4679045 C45.3717965,29.8965453 43.5741289,30.549243 41.8987094,30.549243 C39.5655105,30.549243 38.3259883,30.2262148 36.4115353,29.4304569 L35.6603495,29.0917508 L34.842195,33.862923 C36.2036373,34.4578088 38.7214644,34.9733258 41.3356477,35 C47.4632306,35 51.4411505,32.142392 51.4863789,27.718309 C51.5083378,25.2936918 49.955166,23.4486092 46.5922003,21.9275346 C44.5546252,20.9415744 43.3068004,20.2836507 43.3200193,19.2852788 C43.3200193,18.3993735 44.3762241,17.4520634 46.658295,17.4520634 C48.5645546,17.4225586 49.9453337,17.836823 51.0213123,18.2686161 L51.5436247,18.5145618 L52.333921,13.8951596 Z M67.2819282,13.3907477 L62.7775447,13.3907477 C61.3822358,13.3907477 60.3379389,13.7702814 59.7251696,15.1582035 L51.0677425,34.6904719 L57.1889891,34.6904719 C57.1889891,34.6904719 58.1898054,32.0642205 58.4161662,31.4876255 C59.0850886,31.4876255 65.0316483,31.4967708 65.8817031,31.4967708 C66.0561714,32.2428824 66.5909379,34.6904719 66.5909379,34.6904719 L72,34.6904719 L67.2819282,13.3907477 Z M14.1602217,24.9653611 C14.1603316,24.9657131 14.1604415,24.9660653 14.1605514,24.9664173 L14.768623,27.920052 L20.4757121,13.3859573 L26.6504899,13.3859573 L17.4732632,34.6583543 L11.3056958,34.6653221 L6.12313655,16.1539264 C4.33122055,15.1637824 2.28654502,14.3678388 0,13.8162261 L0.0743975477,13.3727836 L9.47416152,13.3727836 C10.7402308,13.419817 11.7636613,13.8225408 12.1165307,15.1721391 L14.1602217,24.9653609 L14.1602217,24.9653611 Z M60.0937708,27.1282135 C60.5758799,25.9002271 62.4162633,21.1702091 62.4162633,21.1702091 C62.3818503,21.2269324 62.8947674,19.9362347 63.1891894,19.136013 L63.5831358,20.9735833 C63.5831358,20.9735833 64.6993175,26.0611424 64.93267,27.1279958 L60.0937708,27.1282135 Z"/>
    <g transform="translate(180)">
      <polygon fill="#016FD0" points=".048 .048 47.833 .048 47.833 25.921 45.468 29.628 47.833 32.927 47.833 47.977 .048 47.977 .048 23.586 1.526 21.881 .048 20.25"/>
      <path fill="#FFFFFF" d="M9.32407904 33.4461934L9.32407904 25.9214174 17.267565 25.9214174 18.1198151 27.035767 19.0002467 25.9214174 47.8331401 25.9214174 47.8331401 32.9272456C47.8331401 32.9272456 47.079109 33.4386691 46.2070371 33.4461934L30.241669 33.4461934 29.2807904 32.2600216 29.2807904 33.4461934 26.1320647 33.4461934 26.1320647 31.4213622C26.1320647 31.4213622 25.701944 31.7040048 24.7720522 31.7040048L23.7003028 31.7040048 23.7003028 33.4461934 18.9328661 33.4461934 18.0818338 32.3079447 17.2177346 33.4461934 9.32407904 33.4461934zM.0479041916 20.2500372L1.83919162 16.0613718 4.93703617 16.0613718 5.95361246 18.4076925 5.95361246 16.0613718 9.8045188 16.0613718 10.4096872 17.7572228 10.9963775 16.0613718 28.2829547 16.0613718 28.2829547 16.9139315C28.2829547 16.9139315 29.1916949 16.0613718 30.6851516 16.0613718L36.2940134 16.081033 37.2930405 18.3966462 37.2930405 16.0613718 40.5156795 16.0613718 41.4026448 17.3915051 41.4026448 16.0613718 44.6548493 16.0613718 44.6548493 23.5861429 41.4026448 23.5861429 40.5526366 22.2516997 40.5526366 23.5861429 35.8178654 23.5861429 35.3417174 22.3999712 34.0688513 22.3999712 33.6004532 23.5861429 30.3894965 23.5861429C29.104424 23.5861429 28.2829547 22.750991 28.2829547 22.750991L28.2829547 23.5861429 23.4416048 23.5861429 22.4807257 22.3999712 22.4807257 23.5861429 4.47810922 23.5861429 4.00228934 22.3999712 2.73348216 22.3999712 2.26102515 23.5861429.0479041916 23.5861429.0479041916 20.2500372z"/>
      <path fill="#016FD0" d="M2.47319904,16.9890162 L0.0571434251,22.6233273 L1.63012029,22.6233273 L2.07591257,21.4950823 L4.66751329,21.4950823 L5.11099593,22.6233273 L6.71861988,22.6233273 L4.30487377,16.9890162 L2.47319904,16.9890162 Z M3.36709317,18.3002907 L4.15704671,20.2718414 L2.57483018,20.2718414 L3.36709317,18.3002907 Z"/>
      <polygon fill="#016FD0" points="6.885 22.622 6.885 16.988 9.12 16.996 10.42 20.629 11.689 16.988 13.907 16.988 13.907 22.622 12.502 22.622 12.502 18.471 11.014 22.622 9.782 22.622 8.289 18.471 8.289 22.622"/>
      <polygon fill="#016FD0" points="14.868 22.622 14.868 16.988 19.45 16.988 19.45 18.248 16.287 18.248 16.287 19.212 19.376 19.212 19.376 20.398 16.287 20.398 16.287 21.399 19.45 21.399 19.45 22.622"/>
      <path fill="#016FD0" d="M20.2633135,16.9890162 L20.2633135,22.6233273 L21.6676747,22.6233273 L21.6676747,20.6216649 L22.2589844,20.6216649 L23.9428321,22.6233273 L25.659017,22.6233273 L23.8111732,20.5475315 C24.5695396,20.4833441 25.3518127,19.8304961 25.3518127,18.8169273 C25.3518127,17.6312697 24.4239914,16.9890162 23.388479,16.9890162 L20.2633135,16.9890162 Z M21.6676747,18.2493213 L23.2729887,18.2493213 C23.6580814,18.2493213 23.9382127,18.5514571 23.9382127,18.8424072 C23.9382127,19.2167255 23.5752556,19.4354931 23.2937772,19.4354931 L21.6676747,19.4354931 L21.6676747,18.2493213 Z"/>
      <polygon fill="#016FD0" points="27.359 22.622 25.925 22.622 25.925 16.988 27.359 16.988"/>
      <path fill="#016FD0" d="M30.7590654 22.6223808L30.4495516 22.6223808C28.9519842 22.6223808 28.0427353 21.4389958 28.0427353 19.8283916 28.0427353 18.1779988 28.9418041 16.9880649 30.8329792 16.9880649L32.3851679 16.9880649 32.3851679 18.3225081 30.7762304 18.3225081C30.0085178 18.3225081 29.4655746 18.9234306 29.4655746 19.8422919 29.4655746 20.9334438 30.0864067 21.3917261 30.9808067 21.3917261L31.3503751 21.3917261 30.7590654 22.6223808zM33.8149365 16.9890162L31.3988814 22.6233273 32.9718582 22.6233273 33.4176503 21.4950823 36.0092513 21.4950823 36.4527334 22.6233273 38.0603574 22.6233273 35.6466117 16.9890162 33.8149365 16.9890162zM34.7088311 18.3002907L35.4987842 20.2718414 33.9165681 20.2718414 34.7088311 18.3002907z"/>
      <polygon fill="#016FD0" points="38.224 22.622 38.224 16.988 40.01 16.988 42.29 20.528 42.29 16.988 43.694 16.988 43.694 22.622 41.966 22.622 39.629 18.99 39.629 22.622"/>
      <polygon fill="#016FD0" points="10.285 32.482 10.285 26.848 14.868 26.848 14.868 28.108 11.704 28.108 11.704 29.072 14.794 29.072 14.794 30.258 11.704 30.258 11.704 31.259 14.868 31.259 14.868 32.482"/>
      <polygon fill="#016FD0" points="32.74 32.482 32.74 26.848 37.323 26.848 37.323 28.108 34.159 28.108 34.159 29.072 37.234 29.072 37.234 30.258 34.159 30.258 34.159 31.259 37.323 31.259 37.323 32.482"/>
      <polygon fill="#016FD0" points="15.045 32.482 17.277 29.7 14.992 26.848 16.762 26.848 18.122 28.611 19.487 26.848 21.187 26.848 18.933 29.665 21.168 32.482 19.399 32.482 18.078 30.747 16.789 32.482"/>
      <path fill="#016FD0" d="M21.335063 26.8490667L21.335063 32.4833778 22.7763808 32.4833778 22.7763808 30.7041201 24.2546558 30.7041201C25.5054855 30.7041201 26.4535895 30.0385393 26.4535895 28.7441586 26.4535895 27.6718991 25.7099866 26.8490667 24.4371305 26.8490667L21.335063 26.8490667zM22.7763808 28.1232721L24.333189 28.1232721C24.7372829 28.1232721 25.0261303 28.3716853 25.0261303 28.7719592 25.0261303 29.1479928 24.7387411 29.4206462 24.3285696 29.4206462L22.7763808 29.4206462 22.7763808 28.1232721zM27.0633782 26.8481153L27.0633782 32.4824312 28.4677394 32.4824312 28.4677394 30.480764 29.0590491 30.480764 30.7428968 32.4824312 32.4590817 32.4824312 30.6112378 30.4066306C31.3696038 30.3424336 32.1518774 29.6895952 32.1518774 28.6760216 32.1518774 27.4903688 31.224056 26.8481153 30.1885437 26.8481153L27.0633782 26.8481153zM28.4677394 28.1084252L30.0730534 28.1084252C30.4581461 28.1084252 30.7382769 28.4105562 30.7382769 28.7015063 30.7382769 29.0758294 30.3753198 29.2945922 30.0938414 29.2945922L28.4677394 29.2945922 28.4677394 28.1084252zM37.9730467 32.4824312L37.9730467 31.2591904 40.7836172 31.2591904C41.1994807 31.2591904 41.3795468 31.0337874 41.3795468 30.7865754 41.3795468 30.5497177 41.2000484 30.3102559 40.7836172 30.3102559L39.5135526 30.3102559C38.4095665 30.3102559 37.7947301 29.635618 37.7947301 28.6227411 37.7947301 27.7193273 38.357771 26.8481153 39.9982836 26.8481153L42.7330922 26.8481153 42.141782 28.1158342 39.7765423 28.1158342C39.3244125 28.1158342 39.1852321 28.353797 39.1852321 28.5810402 39.1852321 28.8146114 39.3572254 29.0721874 39.7026285 29.0721874L41.0330759 29.0721874C42.2637485 29.0721874 42.7977667 29.7723628 42.7977667 30.6892733 42.7977667 31.6750414 42.2026951 32.4824312 40.96608 32.4824312L37.9730467 32.4824312zM43.1273763 32.4824312L43.1273763 31.2591904 45.9379449 31.2591904C46.3538108 31.2591904 46.5338778 31.0337874 46.5338778 30.7865754 46.5338778 30.5497177 46.354376 30.3102559 45.9379449 30.3102559L44.6678822 30.3102559C43.563896 30.3102559 42.9490592 29.635618 42.9490592 28.6227411 42.9490592 27.7193273 43.5121001 26.8481153 45.1526127 26.8481153L47.8874204 26.8481153 47.2961102 28.1158342 44.9308714 28.1158342C44.478742 28.1158342 44.3395617 28.353797 44.3395617 28.5810402 44.3395617 28.8146114 44.5115545 29.0721874 44.8569576 29.0721874L46.187406 29.0721874C47.418079 29.0721874 47.9520958 29.7723628 47.9520958 30.6892733 47.9520958 31.6750414 47.3570251 32.4824312 46.1204072 32.4824312L43.1273763 32.4824312z"/>
    </g>
  </g>
</svg>
