<?xml version="1.0" encoding="utf-8"?>
<!-- Generator: Adobe Illustrator 21.1.0, SVG Export Plug-In . SVG Version: 6.00 Build 0)  -->
<svg version="1.0" id="Layer_1" xmlns="http://www.w3.org/2000/svg" xmlns:xlink="http://www.w3.org/1999/xlink" x="0px" y="0px"
	 viewBox="0 0 393.5 98.2" enable-background="new 0 0 393.5 98.2" xml:space="preserve">
<g>
	<g>
		<path fill="#FFFFFF" d="M156.2,39.1c-1.3,0-2.4-0.2-3.4-0.6c-1-0.4-1.9-1-2.5-1.9c-0.7-0.8-1.2-1.8-1.6-2.9
			c-0.4-1.1-0.6-2.4-0.6-3.8c0-1.4,0.2-2.7,0.6-3.9c0.4-1.2,1-2.1,1.7-3c0.7-0.8,1.6-1.4,2.6-1.9c1-0.4,2.2-0.7,3.4-0.7
			c1.3,0,2.4,0.2,3.4,0.6c1,0.4,1.9,1,2.6,1.9c0.7,0.8,1.2,1.8,1.6,2.9c0.4,1.1,0.6,2.4,0.6,3.8c0,1.4-0.2,2.7-0.6,3.9
			c-0.4,1.2-0.9,2.1-1.6,3c-0.7,0.8-1.6,1.5-2.6,1.9C158.7,38.9,157.5,39.1,156.2,39.1z M156.3,37.4c1.1,0,2-0.2,2.8-0.6
			c0.8-0.4,1.4-0.9,1.9-1.6c0.5-0.7,0.9-1.5,1.1-2.4c0.2-0.9,0.3-1.9,0.3-3c0-1-0.1-2-0.3-2.9c-0.2-0.9-0.6-1.7-1.1-2.4
			c-0.5-0.7-1.1-1.2-1.9-1.6c-0.8-0.4-1.7-0.6-2.8-0.6c-1.1,0-2,0.2-2.8,0.6c-0.8,0.4-1.4,0.9-1.9,1.6c-0.5,0.7-0.8,1.5-1.1,2.4
			c-0.2,0.9-0.3,1.9-0.3,3c0,1.1,0.1,2.1,0.3,3c0.2,0.9,0.6,1.7,1.1,2.4c0.5,0.7,1.1,1.2,1.9,1.6C154.3,37.2,155.2,37.4,156.3,37.4z
			"/>
		<path fill="#FFFFFF" d="M167.9,21.1h2v2.6c0.8-1,1.7-1.8,2.6-2.3c1-0.6,2.1-0.8,3.5-0.8c1.3,0,2.4,0.2,3.3,0.7
			c0.9,0.5,1.7,1.1,2.3,1.9c0.6,0.8,1.1,1.8,1.4,2.9c0.3,1.1,0.5,2.3,0.5,3.6c0,1.5-0.2,2.8-0.6,4c-0.4,1.2-0.9,2.2-1.6,3
			c-0.7,0.8-1.5,1.4-2.5,1.9c-1,0.4-2,0.6-3.2,0.6c-1.1,0-2.1-0.2-3.1-0.6c-1-0.4-1.9-1.2-2.7-2.3v9h-2V21.1z M169.8,30.5
			c0,0.8,0,1.4,0.1,2c0.1,0.6,0.2,1.1,0.4,1.5s0.4,0.9,0.7,1.2c0.3,0.4,0.7,0.7,1.1,1c0.5,0.4,1.1,0.7,1.6,0.9
			c0.5,0.2,1.2,0.3,1.9,0.3c0.8,0,1.6-0.1,2.3-0.4c0.7-0.3,1.3-0.7,1.8-1.3c0.5-0.6,0.9-1.4,1.2-2.4c0.3-1,0.4-2.2,0.4-3.6
			c0-1.4-0.2-2.6-0.5-3.6c-0.3-1-0.8-1.7-1.3-2.3c-0.5-0.6-1.1-1-1.8-1.2c-0.7-0.2-1.3-0.4-1.9-0.4c-0.7,0-1.3,0.1-1.9,0.2
			c-0.6,0.2-1.1,0.5-1.7,0.9c-0.8,0.6-1.4,1.3-1.9,2.2c-0.4,0.9-0.7,2-0.7,3.4V30.5z"/>
		<path fill="#FFFFFF" d="M201.5,34c-0.3,1.5-1,2.8-2.2,3.7c-1.2,1-2.9,1.4-5,1.4c-2.5,0-4.5-0.8-5.9-2.4c-1.4-1.6-2.1-3.8-2.1-6.7
			c0-1.5,0.2-2.9,0.6-4.1c0.4-1.2,1-2.2,1.7-3c0.7-0.8,1.6-1.4,2.5-1.8c1-0.4,2-0.6,3.2-0.6c1.4,0,2.5,0.2,3.5,0.7
			c1,0.4,1.7,1,2.3,1.8c0.6,0.8,1,1.7,1.3,2.7s0.4,2.2,0.4,3.4v1.3h-13.5c0,1,0.1,1.9,0.4,2.8c0.2,0.9,0.6,1.6,1.1,2.3
			c0.5,0.6,1.1,1.2,1.9,1.5c0.7,0.4,1.6,0.6,2.6,0.6c0.9,0,1.6-0.1,2.2-0.3c0.6-0.2,1.1-0.4,1.5-0.7c0.4-0.3,0.7-0.7,1-1.1
			c0.2-0.4,0.4-0.9,0.6-1.4H201.5z M199.7,28.6c0-1-0.1-1.8-0.3-2.6c-0.2-0.8-0.5-1.5-1-2.1c-0.4-0.6-1-1-1.7-1.3
			c-0.7-0.3-1.5-0.5-2.5-0.5c-1.7,0-3.1,0.5-4.1,1.6c-1,1.1-1.6,2.7-1.8,4.9H199.7z"/>
		<path fill="#FFFFFF" d="M205.2,21.1h2v2.9c1-1.2,2-2.1,3-2.6c1.1-0.5,2.2-0.8,3.4-0.8c2,0,3.5,0.6,4.4,1.7c1,1.1,1.4,2.7,1.4,4.7
			v11.7h-2V27.5c0-1.8-0.3-3.2-1-4c-0.7-0.8-1.7-1.2-3.1-1.2c-0.7,0-1.4,0.1-2.2,0.4c-0.8,0.3-1.4,0.7-2.1,1.2
			c-0.7,0.6-1.2,1.2-1.5,1.8c-0.3,0.6-0.5,1.5-0.5,2.6v10.3h-2V21.1z"/>
		<path fill="#FFFFFF" d="M231.1,33.7c0.2,1.4,0.8,2.3,1.7,2.9c0.9,0.6,2.2,0.8,3.9,0.8c1.7,0,2.9-0.3,3.6-1
			c0.7-0.6,1.1-1.4,1.1-2.4c0-0.4,0-0.8-0.1-1.1c-0.1-0.4-0.3-0.7-0.5-1c-0.3-0.3-0.6-0.5-1.1-0.7c-0.5-0.2-1.1-0.4-1.9-0.5
			l-2.1-0.3c-0.9-0.2-1.8-0.4-2.5-0.6c-0.7-0.2-1.4-0.5-1.9-0.9c-0.5-0.4-0.9-0.8-1.2-1.4c-0.3-0.6-0.4-1.2-0.4-2.1
			c0-0.8,0.2-1.5,0.5-2.1c0.3-0.6,0.8-1.1,1.4-1.6c0.6-0.4,1.3-0.7,2.1-1c0.8-0.2,1.7-0.3,2.6-0.3c1.2,0,2.2,0.1,3,0.4
			c0.8,0.2,1.5,0.6,2,1c0.5,0.4,0.9,0.9,1.2,1.4c0.3,0.5,0.5,1.1,0.7,1.7l-1.8,0.4c-0.2-0.5-0.4-1-0.6-1.4c-0.2-0.4-0.5-0.7-0.9-1
			c-0.4-0.3-0.8-0.5-1.4-0.6c-0.5-0.1-1.2-0.2-2-0.2c-0.9,0-1.7,0.1-2.3,0.3c-0.6,0.2-1.1,0.4-1.5,0.7c-0.4,0.3-0.6,0.6-0.8,1
			c-0.2,0.4-0.2,0.8-0.2,1.2s0,0.8,0.1,1.1c0.1,0.3,0.3,0.6,0.5,0.9c0.3,0.2,0.7,0.5,1.1,0.6c0.5,0.2,1.1,0.3,1.9,0.5l2.7,0.4
			c1.8,0.3,3.2,0.9,4.1,1.6c0.9,0.8,1.4,2,1.4,3.6c0,0.7-0.1,1.3-0.4,1.9s-0.7,1.1-1.3,1.6c-0.6,0.4-1.3,0.8-2.1,1.1
			c-0.8,0.3-1.8,0.4-2.9,0.4c-1.1,0-2-0.1-2.9-0.3c-0.9-0.2-1.7-0.5-2.3-1c-0.7-0.4-1.2-1-1.6-1.7c-0.4-0.7-0.7-1.5-0.7-2.5H231.1z"
			/>
		<path fill="#FFFFFF" d="M254.1,39.1c-1.3,0-2.4-0.2-3.4-0.6c-1-0.4-1.9-1-2.5-1.9c-0.7-0.8-1.2-1.8-1.6-2.9
			c-0.4-1.1-0.6-2.4-0.6-3.8c0-1.4,0.2-2.7,0.6-3.9c0.4-1.2,1-2.1,1.7-3c0.7-0.8,1.6-1.4,2.6-1.9c1-0.4,2.2-0.7,3.4-0.7
			c1.3,0,2.4,0.2,3.4,0.6c1,0.4,1.9,1,2.6,1.9c0.7,0.8,1.2,1.8,1.6,2.9c0.4,1.1,0.6,2.4,0.6,3.8c0,1.4-0.2,2.7-0.6,3.9
			c-0.4,1.2-0.9,2.1-1.6,3c-0.7,0.8-1.6,1.5-2.6,1.9C256.5,38.9,255.4,39.1,254.1,39.1z M254.1,37.4c1.1,0,2.1-0.2,2.8-0.6
			c0.8-0.4,1.4-0.9,1.9-1.6c0.5-0.7,0.9-1.5,1.1-2.4c0.2-0.9,0.3-1.9,0.3-3c0-1-0.1-2-0.3-2.9c-0.2-0.9-0.6-1.7-1.1-2.4
			c-0.5-0.7-1.1-1.2-1.9-1.6s-1.7-0.6-2.8-0.6c-1.1,0-2,0.2-2.8,0.6c-0.8,0.4-1.4,0.9-1.9,1.6c-0.5,0.7-0.8,1.5-1.1,2.4
			c-0.2,0.9-0.3,1.9-0.3,3c0,1.1,0.1,2.1,0.3,3c0.2,0.9,0.6,1.7,1.1,2.4c0.5,0.7,1.1,1.2,1.9,1.6C252.1,37.2,253.1,37.4,254.1,37.4z
			"/>
		<path fill="#FFFFFF" d="M265.7,21.1h2v11.1c0,1.8,0.3,3.2,0.9,4c0.6,0.8,1.6,1.2,3,1.2c0.7,0,1.4-0.1,2.1-0.4
			c0.7-0.3,1.4-0.7,2-1.2c0.7-0.6,1.2-1.2,1.5-1.8c0.3-0.6,0.5-1.5,0.5-2.6V21.1h2v17.5h-2v-2.9c-1.8,2.3-4,3.4-6.4,3.4
			c-2,0-3.4-0.5-4.3-1.6c-0.9-1.1-1.3-2.7-1.3-4.8V21.1z"/>
		<path fill="#FFFFFF" d="M283.7,21.1h2v2.9c0.7-1,1.5-1.8,2.4-2.3c0.9-0.5,1.9-0.8,2.9-0.8c0.2,0,0.5,0,0.7,0c0.2,0,0.4,0,0.7,0.1
			l-0.2,1.9c-0.4-0.1-0.8-0.1-1.1-0.1c-0.6,0-1.2,0.1-1.8,0.3c-0.6,0.2-1.2,0.6-1.7,1.1c-0.5,0.5-1,1-1.3,1.6
			c-0.3,0.6-0.5,1.4-0.5,2.3v10.5h-2V21.1z"/>
		<path fill="#FFFFFF" d="M308.6,32.9c-0.3,2-1.1,3.5-2.3,4.6c-1.2,1.1-2.9,1.6-5,1.6c-1.3,0-2.4-0.2-3.4-0.6c-1-0.4-1.8-1-2.5-1.8
			c-0.7-0.8-1.2-1.8-1.6-2.9c-0.4-1.1-0.5-2.4-0.5-3.8c0-1.4,0.2-2.7,0.6-3.9c0.4-1.2,0.9-2.1,1.6-3c0.7-0.8,1.6-1.4,2.6-1.9
			c1-0.4,2.1-0.7,3.4-0.7c1.9,0,3.5,0.5,4.6,1.5c1.1,1,1.9,2.4,2.3,4.2l-1.9,0.5c-0.1-0.6-0.3-1.2-0.6-1.8c-0.3-0.5-0.6-1-1-1.4
			c-0.4-0.4-0.9-0.7-1.4-0.9c-0.6-0.2-1.3-0.3-2.1-0.3c-1.1,0-2,0.2-2.7,0.6c-0.7,0.4-1.4,0.9-1.9,1.6c-0.5,0.7-0.9,1.5-1.1,2.4
			c-0.2,0.9-0.3,1.9-0.3,3c0,1.1,0.1,2.1,0.3,3c0.2,0.9,0.6,1.7,1.1,2.4c0.5,0.7,1.1,1.2,1.9,1.6c0.8,0.4,1.7,0.6,2.7,0.6
			c1.7,0,2.9-0.4,3.7-1.2c0.8-0.8,1.3-1.9,1.6-3.3H308.6z"/>
		<path fill="#FFFFFF" d="M326.3,34c-0.3,1.5-1,2.8-2.2,3.7c-1.2,1-2.9,1.4-5,1.4c-2.5,0-4.5-0.8-5.9-2.4c-1.4-1.6-2.1-3.8-2.1-6.7
			c0-1.5,0.2-2.9,0.6-4.1c0.4-1.2,1-2.2,1.7-3c0.7-0.8,1.6-1.4,2.5-1.8c1-0.4,2-0.6,3.2-0.6c1.4,0,2.5,0.2,3.5,0.7
			c1,0.4,1.7,1,2.3,1.8c0.6,0.8,1,1.7,1.3,2.7s0.4,2.2,0.4,3.4v1.3h-13.5c0,1,0.1,1.9,0.4,2.8c0.2,0.9,0.6,1.6,1.1,2.3
			c0.5,0.6,1.1,1.2,1.9,1.5c0.7,0.4,1.6,0.6,2.6,0.6c0.9,0,1.6-0.1,2.2-0.3c0.6-0.2,1.1-0.4,1.5-0.7c0.4-0.3,0.7-0.7,1-1.1
			c0.2-0.4,0.4-0.9,0.6-1.4H326.3z M324.5,28.6c0-1-0.1-1.8-0.3-2.6c-0.2-0.8-0.5-1.5-1-2.1c-0.4-0.6-1-1-1.7-1.3
			c-0.7-0.3-1.5-0.5-2.5-0.5c-1.7,0-3.1,0.5-4.1,1.6c-1,1.1-1.6,2.7-1.8,4.9H324.5z"/>
		<path fill="#FFFFFF" d="M148.9,50.2h3.8v4.1h-3.8V50.2z M149.1,58.3h3.5v21.1h-3.5V58.3z"/>
		<path fill="#FFFFFF" d="M157.1,58.3h3.5v3.2c1-1.4,2.2-2.4,3.4-3c1.2-0.6,2.6-0.9,4-0.9c2.4,0,4.2,0.7,5.3,2
			c1.2,1.3,1.7,3.2,1.7,5.7v14h-3.5V66c0-2-0.4-3.3-1.1-4.1c-0.7-0.8-1.8-1.2-3.3-1.2c-0.8,0-1.6,0.1-2.3,0.4
			c-0.8,0.3-1.5,0.7-2.1,1.3c-0.7,0.6-1.2,1.2-1.5,1.9c-0.4,0.7-0.5,1.5-0.5,2.6v12.5h-3.5V58.3z"/>
		<path fill="#FFFFFF" d="M180.6,61.1h-3.3v-2.8h3.3v-5.7h3.5v5.7h5.6v2.8h-5.6v12.4c0,1,0.2,1.9,0.7,2.5c0.5,0.6,1.2,0.9,2.1,0.9
			c0.6,0,1.1,0,1.6-0.1c0.4-0.1,0.9-0.2,1.2-0.3l0.6,2.7c-0.5,0.2-1.1,0.3-1.8,0.5c-0.6,0.1-1.4,0.2-2.3,0.2c-1.2,0-2.2-0.2-2.9-0.5
			c-0.7-0.4-1.3-0.9-1.8-1.5c-0.4-0.7-0.7-1.4-0.9-2.3c-0.1-0.9-0.2-1.9-0.2-2.9V61.1z"/>
		<path fill="#FFFFFF" d="M210.3,73.4c-0.4,2-1.3,3.6-2.7,4.8c-1.5,1.2-3.5,1.8-6.3,1.8c-3.2,0-5.7-1-7.4-2.9
			c-1.7-1.9-2.6-4.7-2.6-8.1c0-1.8,0.2-3.4,0.7-4.9c0.5-1.4,1.2-2.6,2.1-3.5c0.9-1,1.9-1.7,3.2-2.2c1.2-0.5,2.6-0.8,4-0.8
			c1.6,0,3,0.3,4.2,0.8c1.2,0.5,2.1,1.2,2.9,2.1c0.7,0.9,1.3,2,1.7,3.2c0.4,1.3,0.6,2.6,0.6,4.1v1.8H195c0,1.1,0.1,2,0.4,3
			c0.3,0.9,0.7,1.7,1.2,2.4c0.5,0.7,1.2,1.2,2,1.6c0.8,0.4,1.7,0.6,2.7,0.6c1.8,0,3.1-0.3,3.9-1c0.8-0.7,1.4-1.6,1.7-2.7H210.3z
			 M207.1,67c0-1-0.1-1.9-0.3-2.7c-0.2-0.8-0.6-1.5-1-2.1c-0.5-0.6-1.1-1-1.8-1.4c-0.7-0.3-1.6-0.5-2.6-0.5c-1.9,0-3.3,0.6-4.4,1.7
			c-1,1.1-1.7,2.8-1.9,5H207.1z"/>
		<path fill="#FFFFFF" d="M217.8,81.3c0.3,1.3,0.9,2.2,1.7,2.7c0.9,0.5,2.2,0.8,4,0.8c2.2,0,3.8-0.6,4.6-1.9c0.9-1.2,1.3-3,1.3-5.4
			v-2.2c-0.8,1.1-1.8,2-3,2.6c-1.2,0.6-2.5,0.9-4.1,0.9c-1.5,0-2.8-0.3-4-0.8c-1.1-0.6-2.1-1.3-2.8-2.3c-0.7-1-1.3-2.1-1.7-3.4
			c-0.4-1.3-0.6-2.7-0.6-4.1c0-1.6,0.2-3.1,0.7-4.4c0.4-1.3,1.1-2.4,1.9-3.4c0.8-0.9,1.8-1.7,3-2.2c1.2-0.5,2.5-0.8,3.9-0.8
			c1.2,0,2.3,0.2,3.5,0.7c1.2,0.5,2.2,1.4,3.2,2.6v-2.7h3.5v17.7c0,1.8-0.1,3.5-0.4,4.9c-0.3,1.5-0.7,2.7-1.4,3.7
			c-0.7,1-1.7,1.8-2.9,2.3c-1.2,0.5-2.8,0.8-4.7,0.8c-2.8,0-4.9-0.5-6.5-1.5c-1.6-1-2.5-2.6-2.8-4.9H217.8z M229.5,68
			c0-1.4-0.2-2.5-0.5-3.5c-0.3-0.9-0.8-1.7-1.3-2.3c-0.6-0.6-1.2-1-2-1.3c-0.7-0.3-1.5-0.4-2.3-0.4c-0.9,0-1.7,0.1-2.4,0.4
			c-0.7,0.3-1.4,0.7-2,1.4c-0.6,0.6-1,1.4-1.3,2.4c-0.3,1-0.5,2.2-0.5,3.5c0,1.4,0.2,2.6,0.5,3.6c0.3,1,0.8,1.8,1.3,2.4
			c0.5,0.6,1.2,1,1.9,1.3c0.7,0.3,1.4,0.4,2.2,0.4c0.9,0,1.8-0.1,2.5-0.4c0.8-0.3,1.4-0.7,2-1.3c0.6-0.6,1-1.4,1.3-2.3
			c0.3-0.9,0.5-2,0.5-3.2V68z"/>
		<path fill="#FFFFFF" d="M237.5,58.3h3.5v3.3c0.8-1.2,1.7-2.1,2.8-2.7c1.1-0.6,2.2-0.9,3.4-0.9c0.7,0,1.4,0.1,1.9,0.2l-0.4,3.3
			c-0.3-0.1-0.5-0.1-0.8-0.1c-0.3,0-0.6-0.1-0.9-0.1c-0.7,0-1.3,0.1-2,0.3c-0.7,0.2-1.3,0.6-1.9,1.2c-0.6,0.5-1.1,1.1-1.4,1.8
			c-0.3,0.7-0.5,1.5-0.5,2.4v12.5h-3.5V58.3z"/>
		<path fill="#FFFFFF" d="M264.4,76.5c-0.8,0.9-1.7,1.7-2.9,2.4c-1.2,0.7-2.6,1-4.4,1c-1.1,0-2-0.1-2.9-0.4
			c-0.9-0.3-1.6-0.7-2.3-1.2c-0.6-0.5-1.1-1.2-1.5-2c-0.4-0.8-0.5-1.7-0.5-2.8c0-1.4,0.3-2.6,0.9-3.5c0.6-0.9,1.4-1.6,2.4-2.1
			c1-0.5,2.2-0.9,3.4-1.1c1.3-0.2,2.6-0.4,4-0.4l3.6-0.1v-0.8c0-1.8-0.4-3.1-1.1-3.9c-0.8-0.8-2-1.2-3.7-1.2c-1.7,0-2.9,0.3-3.7,0.8
			c-0.8,0.6-1.3,1.3-1.5,2.3l-3.2-0.4c0.4-1.9,1.3-3.3,2.7-4.2c1.4-0.9,3.4-1.3,5.9-1.3c1.5,0,2.8,0.2,3.9,0.6
			c1,0.4,1.9,0.9,2.5,1.6c0.7,0.7,1.1,1.5,1.4,2.5c0.3,1,0.4,2.1,0.4,3.4v13.7h-3.4V76.5z M264.4,68.8l-3.4,0.1
			c-1.4,0.1-2.6,0.2-3.6,0.4c-1,0.2-1.7,0.5-2.3,0.9c-0.6,0.4-1,0.8-1.2,1.4c-0.2,0.5-0.3,1.2-0.3,1.9c0,1.1,0.3,1.9,1,2.5
			c0.6,0.6,1.7,1,3.2,1c2.1,0,3.7-0.5,4.9-1.5c1.2-1,1.8-2.4,1.8-4.2V68.8z"/>
		<path fill="#FFFFFF" d="M273.4,61.1h-3.3v-2.8h3.3v-5.7h3.5v5.7h5.6v2.8h-5.6v12.4c0,1,0.2,1.9,0.7,2.5c0.5,0.6,1.2,0.9,2.1,0.9
			c0.6,0,1.1,0,1.6-0.1c0.4-0.1,0.9-0.2,1.2-0.3l0.6,2.7c-0.5,0.2-1.1,0.3-1.8,0.5c-0.6,0.1-1.4,0.2-2.3,0.2c-1.2,0-2.2-0.2-2.9-0.5
			s-1.3-0.9-1.8-1.5c-0.4-0.7-0.7-1.4-0.9-2.3c-0.1-0.9-0.2-1.9-0.2-2.9V61.1z"/>
		<path fill="#FFFFFF" d="M294.2,80c-1.6,0-3-0.3-4.3-0.8c-1.2-0.5-2.3-1.2-3.2-2.2c-0.9-1-1.5-2.1-2-3.5c-0.5-1.4-0.7-2.9-0.7-4.6
			s0.2-3.3,0.7-4.6c0.5-1.4,1.2-2.6,2.1-3.5c0.9-1,2-1.7,3.2-2.3c1.3-0.5,2.7-0.8,4.2-0.8c1.6,0,3,0.3,4.2,0.8
			c1.2,0.5,2.3,1.3,3.2,2.2c0.9,1,1.6,2.1,2,3.5c0.5,1.4,0.7,2.9,0.7,4.6c0,1.7-0.2,3.3-0.7,4.7c-0.5,1.4-1.2,2.6-2,3.5
			c-0.9,1-2,1.7-3.2,2.3C297.2,79.7,295.8,80,294.2,80z M294.3,77.1c1.1,0,2.1-0.2,2.9-0.6c0.8-0.4,1.5-1,2-1.7
			c0.5-0.7,0.9-1.6,1.2-2.6c0.2-1,0.4-2.1,0.4-3.4c0-1.2-0.1-2.3-0.4-3.3c-0.2-1-0.6-1.9-1.2-2.6c-0.5-0.7-1.2-1.3-2-1.7
			c-0.8-0.4-1.8-0.6-2.9-0.6c-1.1,0-2.1,0.2-2.9,0.6c-0.8,0.4-1.5,1-2,1.7c-0.5,0.7-0.9,1.6-1.2,2.6c-0.2,1-0.4,2.1-0.4,3.3
			s0.1,2.3,0.4,3.3c0.2,1,0.6,1.9,1.1,2.6c0.5,0.7,1.2,1.3,2,1.7C292.2,76.9,293.1,77.1,294.3,77.1z"/>
		<path fill="#FFFFFF" d="M308.2,58.3h3.5v3.3c0.8-1.2,1.7-2.1,2.8-2.7c1.1-0.6,2.2-0.9,3.4-0.9c0.7,0,1.4,0.1,1.9,0.2l-0.4,3.3
			c-0.3-0.1-0.5-0.1-0.8-0.1c-0.3,0-0.6-0.1-0.9-0.1c-0.7,0-1.3,0.1-2,0.3c-0.7,0.2-1.3,0.6-1.9,1.2c-0.6,0.5-1.1,1.1-1.4,1.8
			c-0.3,0.7-0.5,1.5-0.5,2.4v12.5h-3.5V58.3z"/>
		<path fill="#FFFFFF" d="M324.5,73.2c0.2,1.5,0.9,2.5,1.9,3.1c1,0.6,2.3,0.9,4.1,0.9c1.8,0,3.1-0.3,3.8-0.9
			c0.7-0.6,1.1-1.4,1.1-2.4c0-0.4,0-0.8-0.1-1.2c-0.1-0.4-0.3-0.7-0.6-1s-0.7-0.5-1.1-0.8c-0.5-0.2-1.1-0.4-1.9-0.5l-2.7-0.4
			c-1.2-0.2-2.2-0.4-3.1-0.7c-0.9-0.3-1.7-0.7-2.3-1.2c-0.6-0.5-1.1-1.1-1.4-1.8c-0.3-0.7-0.5-1.5-0.5-2.5c0-1,0.2-1.8,0.6-2.6
			c0.4-0.8,1-1.4,1.8-1.9c0.7-0.5,1.6-0.9,2.7-1.2c1-0.3,2.1-0.4,3.3-0.4c1.5,0,2.8,0.1,3.8,0.4c1,0.3,1.9,0.7,2.5,1.2
			c0.7,0.5,1.2,1.1,1.5,1.8c0.4,0.7,0.6,1.5,0.8,2.2l-3.2,0.5c-0.2-0.6-0.4-1.1-0.7-1.5c-0.2-0.4-0.6-0.8-1-1.1
			c-0.4-0.3-0.9-0.5-1.5-0.7c-0.6-0.1-1.3-0.2-2.2-0.2c-1,0-1.8,0.1-2.4,0.3c-0.7,0.2-1.2,0.4-1.6,0.7c-0.4,0.3-0.7,0.6-0.8,1
			c-0.2,0.4-0.2,0.8-0.2,1.2c0,0.4,0.1,0.8,0.2,1.2c0.1,0.3,0.3,0.6,0.6,0.9c0.3,0.3,0.7,0.5,1.2,0.7c0.5,0.2,1.2,0.4,2,0.5l3.1,0.5
			c2.5,0.4,4.2,1.1,5.3,2.1c1.1,1,1.6,2.5,1.6,4.4c0,0.9-0.2,1.7-0.5,2.5c-0.4,0.7-0.9,1.4-1.6,2c-0.7,0.6-1.6,1-2.6,1.3
			c-1.1,0.3-2.3,0.5-3.7,0.5c-1.3,0-2.5-0.1-3.6-0.4c-1.1-0.2-2.1-0.6-2.9-1.2c-0.8-0.5-1.5-1.2-2-2.1c-0.5-0.9-0.8-1.9-0.9-3.2
			H324.5z"/>
		<path fill="#FFFFFF" d="M341.3,77.1h1.8v2.2h-1.8V77.1z"/>
		<path fill="#FFFFFF" d="M355.9,75.4c-0.2,1.4-0.8,2.5-1.6,3.2c-0.9,0.8-2,1.2-3.5,1.2c-0.9,0-1.7-0.1-2.4-0.4
			c-0.7-0.3-1.3-0.7-1.8-1.3s-0.8-1.2-1.1-2c-0.3-0.8-0.4-1.7-0.4-2.7s0.1-1.9,0.4-2.7c0.3-0.8,0.7-1.5,1.1-2.1
			c0.5-0.6,1.1-1,1.8-1.3c0.7-0.3,1.5-0.5,2.4-0.5c1.3,0,2.4,0.3,3.2,1c0.8,0.7,1.3,1.7,1.6,2.9l-1.3,0.3c-0.1-0.4-0.2-0.9-0.4-1.2
			c-0.2-0.4-0.4-0.7-0.7-1c-0.3-0.3-0.6-0.5-1-0.6c-0.4-0.2-0.9-0.2-1.4-0.2c-0.7,0-1.4,0.1-1.9,0.4c-0.5,0.3-1,0.6-1.3,1.1
			s-0.6,1-0.8,1.7c-0.2,0.7-0.2,1.4-0.2,2.1c0,0.8,0.1,1.5,0.2,2.1c0.2,0.7,0.4,1.2,0.7,1.7c0.3,0.5,0.8,0.8,1.3,1.1
			c0.5,0.3,1.2,0.4,1.9,0.4c1.2,0,2.1-0.3,2.6-0.9c0.5-0.6,0.9-1.4,1.1-2.3H355.9z"/>
		<path fill="#FFFFFF" d="M363.4,79.7c-0.9,0-1.7-0.2-2.4-0.5c-0.7-0.3-1.3-0.7-1.8-1.3c-0.5-0.6-0.9-1.2-1.1-2
			c-0.3-0.8-0.4-1.7-0.4-2.7c0-1,0.1-1.9,0.4-2.7s0.7-1.5,1.2-2.1c0.5-0.6,1.1-1,1.8-1.3c0.7-0.3,1.5-0.5,2.4-0.5s1.7,0.2,2.4,0.5
			c0.7,0.3,1.3,0.7,1.8,1.3c0.5,0.6,0.9,1.2,1.1,2c0.3,0.8,0.4,1.7,0.4,2.6c0,1-0.1,1.9-0.4,2.7c-0.3,0.8-0.7,1.5-1.2,2.1
			c-0.5,0.6-1.1,1-1.8,1.3C365.1,79.6,364.3,79.7,363.4,79.7z M363.5,78.5c0.8,0,1.4-0.1,2-0.4s1-0.7,1.3-1.1c0.3-0.5,0.6-1,0.8-1.7
			c0.2-0.7,0.2-1.4,0.2-2.1c0-0.7-0.1-1.4-0.2-2.1c-0.2-0.6-0.4-1.2-0.8-1.7c-0.3-0.5-0.8-0.9-1.3-1.1c-0.5-0.3-1.2-0.4-2-0.4
			c-0.8,0-1.4,0.1-2,0.4c-0.5,0.3-1,0.7-1.3,1.1c-0.3,0.5-0.6,1-0.7,1.7c-0.2,0.6-0.2,1.3-0.2,2.1c0,0.7,0.1,1.4,0.2,2.1
			c0.2,0.7,0.4,1.2,0.7,1.7c0.3,0.5,0.8,0.9,1.3,1.1C362.1,78.4,362.7,78.5,363.5,78.5z"/>
		<path fill="#FFFFFF" d="M371.7,67.1h1.4v2c0.6-0.8,1.2-1.4,1.9-1.8c0.7-0.4,1.4-0.6,2.1-0.6c0.9,0,1.7,0.2,2.2,0.6
			c0.6,0.4,1,1,1.2,1.8c0.6-0.8,1.2-1.4,1.9-1.8c0.7-0.4,1.5-0.6,2.4-0.6c1.2,0,2.1,0.3,2.8,1s1,1.6,1,3v8.6h-1.4v-8.1
			c0-0.6-0.1-1.2-0.2-1.6s-0.3-0.7-0.5-1c-0.2-0.3-0.5-0.4-0.8-0.5c-0.3-0.1-0.7-0.2-1.1-0.2c-0.4,0-0.8,0.1-1.2,0.2
			c-0.5,0.1-0.9,0.4-1.3,0.7c-0.4,0.3-0.7,0.7-0.9,1.1c-0.2,0.4-0.4,0.9-0.4,1.5v7.8h-1.4v-8.1c0-1.2-0.2-2-0.6-2.5
			c-0.4-0.5-1-0.7-1.9-0.7c-0.5,0-0.9,0.1-1.3,0.3c-0.4,0.2-0.8,0.5-1.2,0.8c-0.1,0.1-0.3,0.3-0.5,0.5c-0.2,0.2-0.3,0.4-0.4,0.6
			c-0.1,0.2-0.2,0.5-0.3,0.8c-0.1,0.3-0.1,0.7-0.1,1.1v7.3h-1.4V67.1z"/>
	</g>
	<g>
		<path fill="#FFFFFF" d="M288.1,89.7h1l2.8,7.3h-1l-0.8-2H287l-0.8,2h-1L288.1,89.7z M289.8,94.2l-1.3-3.4l-1.3,3.4H289.8z"/>
		<path fill="#FFFFFF" d="M292.9,89.7h0.9l3.7,5.8v-5.8h0.9V97h-0.9l-3.7-5.7V97h-0.9V89.7z"/>
		<path fill="#FFFFFF" d="M302.4,87.3h1.3v5.9c0,1,0.2,1.8,0.6,2.3c0.4,0.5,1,0.7,1.9,0.7c0.9,0,1.5-0.3,1.9-0.8
			c0.4-0.5,0.5-1.3,0.5-2.2v-5.9h1.3v5.9c0,0.7-0.1,1.3-0.3,1.9c-0.2,0.5-0.4,0.9-0.7,1.3c-0.3,0.3-0.7,0.6-1.2,0.7
			c-0.5,0.2-1,0.2-1.5,0.2c-1.2,0-2.1-0.3-2.7-1c-0.6-0.7-1-1.7-1-3.2V87.3z"/>
		<path fill="#FFFFFF" d="M311.8,87.3h3.2c0.7,0,1.3,0.1,1.8,0.2c0.5,0.2,0.8,0.4,1.1,0.6c0.3,0.3,0.5,0.6,0.6,0.9
			c0.1,0.3,0.1,0.7,0.1,1c0,0.6-0.1,1.1-0.4,1.6c-0.3,0.4-0.7,0.8-1.3,1l2,4.4h-1.4l-1.8-4.1c-0.1,0-0.2,0-0.4,0c-0.1,0-0.3,0-0.4,0
			h-1.9v4h-1.2V87.3z M315.1,91.9c0.4,0,0.8,0,1.1-0.1c0.3-0.1,0.5-0.2,0.7-0.4c0.2-0.2,0.3-0.4,0.3-0.6c0.1-0.2,0.1-0.5,0.1-0.8
			c0-0.3,0-0.5-0.1-0.7c-0.1-0.2-0.2-0.4-0.4-0.5c-0.2-0.1-0.4-0.3-0.7-0.3c-0.3-0.1-0.7-0.1-1.1-0.1h-1.9v3.5H315.1z"/>
		<path fill="#FFFFFF" d="M321,94.2c0.1,0.7,0.4,1.2,0.8,1.5c0.4,0.3,1.1,0.5,1.9,0.5c0.4,0,0.8,0,1.1-0.1c0.3-0.1,0.5-0.2,0.7-0.4
			c0.2-0.2,0.3-0.3,0.4-0.6c0.1-0.2,0.1-0.4,0.1-0.7c0-0.2,0-0.4-0.1-0.6c0-0.2-0.1-0.3-0.3-0.5c-0.1-0.1-0.3-0.3-0.5-0.4
			c-0.2-0.1-0.5-0.2-0.9-0.3l-1.2-0.2c-0.5-0.1-0.9-0.2-1.3-0.3c-0.4-0.1-0.7-0.3-0.9-0.5c-0.3-0.2-0.5-0.5-0.6-0.8
			c-0.1-0.3-0.2-0.7-0.2-1.2c0-0.4,0.1-0.8,0.3-1.2c0.2-0.3,0.4-0.6,0.8-0.8c0.3-0.2,0.7-0.4,1.1-0.5c0.4-0.1,0.9-0.2,1.4-0.2
			c0.6,0,1.2,0.1,1.6,0.2c0.4,0.1,0.8,0.3,1.1,0.6s0.5,0.5,0.6,0.8c0.1,0.3,0.2,0.6,0.3,0.9l-1.2,0.2c-0.1-0.3-0.2-0.5-0.3-0.7
			c-0.1-0.2-0.3-0.4-0.4-0.5c-0.2-0.1-0.4-0.2-0.7-0.3c-0.3-0.1-0.6-0.1-1-0.1c-0.4,0-0.8,0-1.1,0.1c-0.3,0.1-0.5,0.2-0.7,0.3
			c-0.2,0.1-0.3,0.3-0.4,0.5c-0.1,0.2-0.1,0.4-0.1,0.6c0,0.2,0,0.4,0.1,0.6c0.1,0.2,0.2,0.3,0.3,0.5c0.1,0.1,0.3,0.2,0.6,0.3
			c0.2,0.1,0.5,0.2,0.8,0.2l1.4,0.2c1,0.2,1.7,0.5,2.2,0.9c0.5,0.4,0.7,1.1,0.7,1.9c0,0.4-0.1,0.8-0.2,1.1c-0.1,0.3-0.4,0.6-0.7,0.9
			c-0.3,0.3-0.7,0.5-1.1,0.6c-0.4,0.1-1,0.2-1.6,0.2c-0.6,0-1.1-0.1-1.6-0.2c-0.5-0.1-0.9-0.3-1.2-0.5c-0.3-0.2-0.6-0.6-0.8-0.9
			c-0.2-0.4-0.3-0.8-0.4-1.4H321z"/>
		<path fill="#FFFFFF" d="M331.8,87.3h1.3l3.8,9.7h-1.4l-1-2.7h-4.2l-1,2.7h-1.3L331.8,87.3z M334.2,93.2l-1.7-4.5l-1.7,4.5H334.2z"
			/>
		<path fill="#FFFFFF" d="M346.2,94.6c0,0.4-0.1,0.7-0.3,1c-0.1,0.3-0.3,0.6-0.6,0.8c-0.2,0.2-0.5,0.4-0.9,0.5
			c-0.4,0.1-0.8,0.2-1.2,0.2c-0.5,0-1-0.1-1.4-0.3c-0.4-0.2-0.7-0.4-1-0.7c-0.3-0.3-0.5-0.7-0.6-1.2c-0.2-0.5-0.2-1-0.2-1.6
			c0-0.6,0.1-1.2,0.2-1.6c0.2-0.5,0.4-0.9,0.7-1.2c0.3-0.3,0.6-0.6,1-0.7c0.4-0.2,0.8-0.3,1.3-0.3c0.4,0,0.8,0.1,1.2,0.2
			c0.3,0.1,0.6,0.3,0.8,0.5c0.2,0.2,0.4,0.5,0.5,0.8s0.2,0.6,0.3,1l-0.9,0.2c-0.1-0.3-0.1-0.5-0.2-0.7c-0.1-0.2-0.2-0.4-0.4-0.5
			c-0.2-0.1-0.3-0.3-0.6-0.3c-0.2-0.1-0.5-0.1-0.8-0.1c-0.4,0-0.7,0.1-1,0.2c-0.3,0.1-0.5,0.4-0.7,0.6c-0.2,0.3-0.3,0.6-0.4,0.9
			c-0.1,0.4-0.2,0.8-0.2,1.2c0,0.4,0.1,0.9,0.2,1.2c0.1,0.4,0.2,0.7,0.4,1c0.2,0.3,0.4,0.5,0.7,0.6c0.3,0.1,0.6,0.2,1,0.2
			c0.3,0,0.6,0,0.9-0.1c0.2-0.1,0.4-0.2,0.6-0.4s0.3-0.3,0.4-0.6c0.1-0.2,0.2-0.5,0.2-0.7H346.2z"/>
		<path fill="#FFFFFF" d="M350.6,97.2c-0.5,0-0.9-0.1-1.4-0.3s-0.8-0.4-1.1-0.7c-0.3-0.3-0.5-0.7-0.7-1.2c-0.2-0.5-0.2-1-0.2-1.6
			c0-0.6,0.1-1.2,0.3-1.6c0.2-0.5,0.4-0.9,0.7-1.2c0.3-0.3,0.6-0.6,1.1-0.7c0.4-0.2,0.9-0.3,1.4-0.3c0.5,0,1,0.1,1.4,0.2
			c0.4,0.2,0.8,0.4,1.1,0.7c0.3,0.3,0.5,0.7,0.7,1.2c0.2,0.5,0.2,1,0.2,1.6c0,0.6-0.1,1.2-0.2,1.6c-0.2,0.5-0.4,0.9-0.7,1.2
			c-0.3,0.3-0.6,0.6-1.1,0.7C351.6,97.1,351.1,97.2,350.6,97.2z M350.6,96.4c0.4,0,0.7-0.1,1-0.2c0.3-0.1,0.5-0.3,0.7-0.6
			c0.2-0.3,0.3-0.6,0.4-0.9c0.1-0.4,0.2-0.8,0.2-1.2c0-0.4-0.1-0.9-0.2-1.2c-0.1-0.4-0.3-0.7-0.5-1c-0.2-0.3-0.4-0.5-0.7-0.6
			c-0.3-0.1-0.6-0.2-1-0.2c-0.4,0-0.7,0.1-1,0.2c-0.3,0.1-0.5,0.3-0.7,0.6c-0.2,0.3-0.4,0.6-0.4,1c-0.1,0.4-0.1,0.8-0.1,1.2
			c0,0.5,0,0.9,0.1,1.2c0.1,0.4,0.2,0.7,0.4,0.9c0.2,0.3,0.4,0.5,0.7,0.6C349.9,96.3,350.2,96.4,350.6,96.4z"/>
		<path fill="#FFFFFF" d="M355.4,89.7h1.2l2.3,6.2l2.4-6.2h1.1V97h-0.9v-5.7l-2.3,5.7h-0.8l-2.2-5.7V97h-0.9V89.7z"/>
		<path fill="#FFFFFF" d="M364.1,89.7h2.4c0.5,0,1,0.1,1.3,0.2c0.4,0.1,0.6,0.3,0.8,0.5c0.2,0.2,0.3,0.4,0.4,0.7
			c0.1,0.3,0.1,0.5,0.1,0.8c0,0.3,0,0.6-0.1,0.9c-0.1,0.3-0.2,0.5-0.4,0.7c-0.2,0.2-0.5,0.4-0.8,0.5c-0.3,0.1-0.8,0.2-1.3,0.2H365
			V97h-0.9V89.7z M366.5,93.4c0.4,0,0.6,0,0.9-0.1c0.2-0.1,0.4-0.2,0.5-0.3c0.1-0.1,0.2-0.3,0.3-0.5c0.1-0.2,0.1-0.4,0.1-0.6
			c0-0.2,0-0.4-0.1-0.6c-0.1-0.2-0.1-0.3-0.3-0.4c-0.1-0.1-0.3-0.2-0.5-0.3c-0.2-0.1-0.5-0.1-0.9-0.1H365v2.9H366.5z"/>
		<path fill="#FFFFFF" d="M372.2,89.7h1L376,97h-1l-0.8-2h-3.1l-0.8,2h-1L372.2,89.7z M373.9,94.2l-1.3-3.4l-1.3,3.4H373.9z"/>
		<path fill="#FFFFFF" d="M377,89.7h0.9l3.7,5.8v-5.8h0.9V97h-0.9l-3.7-5.7V97H377V89.7z"/>
		<path fill="#FFFFFF" d="M386.2,93.9l-2.5-4.2h1.1l1.9,3.4l2-3.4h1l-2.5,4.2V97h-0.9V93.9z"/>
	</g>
	<path fill="#FFFFFF" d="M3.9,1v96h82.8h41.4V65V1H3.9z M86.7,65v27.3H8.6V5.7h114.7V65H86.7z"/>
</g>
</svg>
